<svg xmlns="http://www.w3.org/2000/svg" id="canvas" viewBox="260.941 303.793 954.352 150.169"><path d="M 361.26,308.88 C 360.40 307.82, 359.21 307.37, 357.03 307.05 C 354.84 306.73, 353.41 306.61, 350.32 307.28 C 347.23 307.94, 345.22 308.75, 341.59 310.38 C 337.97 312.02, 336.06 313.29, 332.19 315.45 C 328.31 317.62, 326.19 318.78, 322.22 321.21 C 318.24 323.64, 315.99 324.98, 312.30 327.62 C 308.61 330.26, 306.71 331.73, 303.76 334.42 C 300.82 337.11, 299.27 338.28, 297.57 341.07 C 295.87 343.86, 295.44 345.49, 295.28 348.35 C 295.11 351.21, 295.40 352.75, 296.75 355.37 C 298.11 357.99, 299.26 359.41, 302.05 361.44 C 304.84 363.48, 306.87 364.04, 310.70 365.54 C 314.54 367.04, 316.80 367.54, 321.22 368.92 C 325.64 370.30, 328.24 370.97, 332.79 372.45 C 337.34 373.93, 339.89 374.65, 343.96 376.31 C 348.02 377.96, 349.97 378.83, 353.11 380.72 C 356.26 382.61, 357.70 383.68, 359.69 385.76 C 361.69 387.85, 362.28 388.95, 363.08 391.15 C 363.87 393.34, 363.94 394.29, 363.69 396.75 C 363.44 399.22, 363.18 400.57, 361.82 403.48 C 360.46 406.38, 359.54 408.11, 356.89 411.29 C 354.25 414.46, 352.48 416.23, 348.60 419.36 C 344.72 422.48, 342.29 424.06, 337.49 426.91 C 332.68 429.75, 329.96 431.29, 324.58 433.59 C 319.21 435.90, 316.10 436.80, 310.62 438.44 C 305.13 440.09, 302.24 440.85, 297.15 441.80 C 292.07 442.76, 289.39 443.11, 285.20 443.24 C 281.02 443.37, 279.04 442.88, 276.23 442.45 C 273.41 442.01, 272.35 441.66, 271.11 441.05 C 269.87 440.44, 269.83 440.27, 270.03 439.40 C 270.23 438.52, 271.33 437.81, 272.12 436.69 C 272.90 435.56, 273.46 435.10, 273.95 433.76 C 274.45 432.42, 274.95 431.19, 274.57 429.99 C 274.20 428.78, 273.39 427.91, 272.08 427.73 C 270.78 427.55, 269.49 427.99, 268.05 429.10 C 266.60 430.22, 265.63 431.11, 264.87 433.32 C 264.10 435.52, 263.60 437.64, 264.22 440.13 C 264.84 442.62, 265.77 444.09, 267.99 445.77 C 270.21 447.45, 271.81 448.04, 275.33 448.53 C 278.84 449.03, 281.01 448.73, 285.56 448.25 C 290.10 447.76, 292.79 447.28, 298.04 446.11 C 303.29 444.94, 306.19 444.14, 311.82 442.40 C 317.45 440.66, 320.63 439.75, 326.20 437.41 C 331.78 435.08, 334.60 433.56, 339.68 430.73 C 344.76 427.90, 347.31 426.40, 351.59 423.26 C 355.88 420.12, 357.92 418.42, 361.11 415.04 C 364.30 411.66, 365.65 409.87, 367.53 406.35 C 369.41 402.84, 370.13 400.99, 370.50 397.46 C 370.87 393.93, 370.67 391.94, 369.39 388.72 C 368.10 385.50, 366.77 383.93, 364.07 381.36 C 361.38 378.78, 359.54 377.84, 355.92 375.84 C 352.29 373.85, 350.22 373.07, 345.93 371.38 C 341.65 369.69, 339.05 368.97, 334.49 367.39 C 329.92 365.81, 327.31 365.07, 323.09 363.48 C 318.87 361.90, 316.70 361.12, 313.39 359.46 C 310.08 357.80, 308.72 356.70, 306.54 355.18 C 304.36 353.65, 303.53 353.09, 302.47 351.82 C 301.42 350.56, 301.08 350.26, 301.28 348.85 C 301.47 347.44, 302.10 346.80, 303.44 344.78 C 304.78 342.76, 305.55 341.29, 307.98 338.76 C 310.41 336.22, 312.17 334.67, 315.59 332.11 C 319.00 329.55, 321.18 328.21, 325.05 325.95 C 328.92 323.70, 331.13 322.59, 334.94 320.81 C 338.74 319.04, 340.66 318.08, 344.09 317.09 C 347.52 316.09, 349.37 316.39, 352.10 315.85 C 354.83 315.31, 355.87 315.09, 357.72 314.38 C 359.57 313.68, 360.65 313.44, 361.36 312.34 C 362.06 311.24, 362.13 309.94, 361.26 308.88" style="stroke: black; fill: black;"/><path d="M 462.15,391.59 C 462.49 390.27, 462.26 388.97, 461.15 387.26 C 460.03 385.55, 458.97 384.41, 456.58 383.03 C 454.18 381.65, 452.56 380.77, 449.18 380.37 C 445.80 379.97, 443.79 380.26, 439.68 381.01 C 435.57 381.75, 433.27 382.38, 428.62 384.10 C 423.96 385.83, 421.37 386.92, 416.40 389.64 C 411.43 392.35, 408.53 394.14, 403.79 397.68 C 399.04 401.21, 396.62 403.36, 392.67 407.29 C 388.71 411.23, 386.78 413.38, 384.02 417.35 C 381.26 421.31, 379.97 423.36, 378.87 427.13 C 377.77 430.90, 377.66 432.97, 378.53 436.19 C 379.40 439.40, 380.50 441.18, 383.22 443.21 C 385.94 445.23, 388.08 445.81, 392.13 446.30 C 396.17 446.80, 398.66 446.57, 403.44 445.70 C 408.23 444.83, 410.75 443.95, 416.05 441.96 C 421.34 439.97, 424.35 438.68, 429.90 435.77 C 435.46 432.85, 438.55 431.02, 443.81 427.38 C 449.08 423.74, 451.60 421.47, 456.23 417.56 C 460.86 413.66, 463.26 411.49, 466.97 407.85 C 470.68 404.21, 472.96 402.28, 474.80 399.37 C 476.63 396.45, 476.74 394.69, 476.14 393.26 C 475.54 391.83, 473.86 391.26, 471.79 392.22 C 469.71 393.19, 468.24 394.76, 465.76 398.08 C 463.27 401.39, 461.86 404.33, 459.35 408.80 C 456.84 413.28, 455.40 416.11, 453.21 420.46 C 451.02 424.80, 449.87 426.84, 448.41 430.52 C 446.96 434.21, 446.13 435.89, 445.93 438.88 C 445.72 441.87, 446.20 443.29, 447.40 445.48 C 448.61 447.66, 449.59 448.76, 451.95 449.81 C 454.31 450.85, 456.14 451.29, 459.20 450.69 C 462.26 450.09, 463.81 448.85, 467.25 446.82 C 470.70 444.78, 472.56 443.35, 476.44 440.52 C 480.33 437.68, 482.52 436.05, 486.67 432.64 C 490.83 429.23, 493.12 427.21, 497.23 423.47 C 501.35 419.73, 503.51 417.58, 507.24 413.93 C 510.97 410.27, 512.75 408.28, 515.87 405.20 C 518.99 402.13, 521.00 401.00, 522.85 398.56 C 524.71 396.12, 525.29 394.51, 525.16 393.02 C 525.04 391.53, 523.83 390.61, 522.21 391.10 C 520.59 391.58, 519.15 392.72, 517.07 395.45 C 514.99 398.18, 514.04 400.66, 511.80 404.76 C 509.55 408.86, 508.09 411.70, 505.84 415.97 C 503.59 420.25, 502.40 422.54, 500.56 426.13 C 498.73 429.72, 497.64 431.34, 496.67 433.91 C 495.70 436.49, 495.86 437.50, 495.72 439.00 C 495.58 440.50, 495.82 440.76, 495.97 441.40 C 496.13 442.05, 496.27 441.94, 496.51 442.23 C 496.75 442.53, 496.76 442.75, 497.16 442.87 C 497.57 443.00, 497.79 443.23, 498.53 442.85 C 499.27 442.48, 499.92 442.27, 500.86 441.00 C 501.79 439.73, 502.18 438.97, 503.20 436.51 C 504.23 434.05, 504.45 432.26, 506.01 428.71 C 507.56 425.17, 508.61 422.86, 510.96 418.80 C 513.31 414.74, 515.19 412.21, 517.78 408.41 C 520.36 404.62, 522.26 402.85, 523.88 399.82 C 525.49 396.79, 526.08 395.10, 525.84 393.28 C 525.61 391.46, 524.35 390.58, 522.70 390.73 C 521.05 390.87, 519.73 391.81, 517.59 394.00 C 515.44 396.18, 514.72 398.33, 511.99 401.65 C 509.26 404.98, 507.49 406.95, 503.93 410.64 C 500.36 414.32, 498.22 416.44, 494.17 420.07 C 490.11 423.70, 487.82 425.65, 483.65 428.79 C 479.47 431.93, 477.22 433.43, 473.30 435.77 C 469.37 438.12, 467.26 439.14, 464.03 440.53 C 460.80 441.91, 459.26 441.98, 457.16 442.71 C 455.06 443.43, 454.52 444.03, 453.52 444.14 C 452.53 444.25, 452.43 444.18, 452.20 443.27 C 451.98 442.35, 452.07 441.71, 452.41 439.57 C 452.75 437.44, 452.78 435.89, 453.93 432.58 C 455.08 429.27, 456.00 427.11, 458.16 423.01 C 460.33 418.90, 462.07 416.21, 464.76 412.05 C 467.44 407.89, 469.41 405.47, 471.59 402.21 C 473.76 398.94, 475.09 397.64, 475.63 395.72 C 476.18 393.80, 475.44 392.58, 474.31 392.59 C 473.18 392.61, 472.14 393.38, 470.00 395.80 C 467.87 398.21, 466.89 400.93, 463.61 404.67 C 460.33 408.42, 458.01 410.63, 453.61 414.52 C 449.20 418.41, 446.70 420.63, 441.58 424.14 C 436.46 427.65, 433.43 429.38, 428.02 432.07 C 422.60 434.75, 419.58 435.92, 414.51 437.55 C 409.43 439.18, 406.93 439.75, 402.63 440.22 C 398.33 440.70, 396.13 440.40, 393.00 439.92 C 389.88 439.43, 388.72 438.86, 386.99 437.79 C 385.26 436.72, 384.89 436.39, 384.36 434.56 C 383.82 432.73, 383.57 431.54, 384.32 428.63 C 385.06 425.73, 385.76 423.68, 388.07 420.04 C 390.37 416.39, 392.16 414.19, 395.83 410.42 C 399.49 406.66, 401.85 404.54, 406.40 401.22 C 410.95 397.90, 413.81 396.22, 418.59 393.82 C 423.38 391.43, 425.95 390.51, 430.32 389.25 C 434.69 388.00, 436.96 387.67, 440.43 387.55 C 443.90 387.42, 445.28 387.99, 447.66 388.64 C 450.04 389.29, 450.64 389.95, 452.31 390.80 C 453.98 391.65, 454.56 392.29, 455.99 392.90 C 457.42 393.51, 458.21 394.13, 459.44 393.87 C 460.68 393.60, 461.81 392.91, 462.15 391.59" style="stroke: black; fill: black;"/><path d="M 538.07,341.52 C 539.28 341.87, 540.06 341.55, 540.27 341.70 C 540.48 341.85, 539.77 342.05, 539.12 342.27 C 538.48 342.50, 537.45 343.05, 537.04 342.81 C 536.63 342.57, 536.75 342.07, 537.08 341.09 C 537.40 340.11, 538.55 339.00, 538.67 337.93 C 538.80 336.85, 538.58 335.98, 537.70 335.70 C 536.83 335.42, 535.33 335.98, 534.30 336.53 C 533.27 337.07, 532.57 337.73, 532.55 338.42 C 532.54 339.11, 533.10 339.35, 534.21 339.97 C 535.31 340.59, 536.86 341.18, 538.07 341.52" style="stroke: black; fill: black;"/><path d="M 682.24,327.53 C 680.92 327.98, 679.93 328.64, 678.50 331.08 C 677.08 333.51, 677.03 335.49, 675.10 339.72 C 673.17 343.94, 671.76 346.67, 668.85 352.21 C 665.94 357.74, 664.21 361.14, 660.55 367.40 C 656.89 373.65, 654.65 377.03, 650.57 383.48 C 646.49 389.92, 644.14 393.38, 640.16 399.63 C 636.18 405.87, 634.12 409.16, 630.67 414.69 C 627.23 420.23, 625.59 422.87, 622.93 427.31 C 620.27 431.75, 618.85 433.53, 617.38 436.88 C 615.92 440.23, 615.53 441.72, 615.60 444.06 C 615.66 446.40, 616.63 447.28, 617.69 448.57 C 618.75 449.86, 619.60 450.10, 620.89 450.52 C 622.18 450.93, 623.26 451.08, 624.14 450.64 C 625.02 450.20, 625.48 449.38, 625.29 448.31 C 625.10 447.24, 623.90 445.99, 623.18 445.29 C 622.47 444.58, 622.06 444.71, 621.70 444.78 C 621.35 444.85, 621.57 445.38, 621.43 445.64 C 621.28 445.89, 621.08 446.32, 620.96 446.06 C 620.83 445.81, 620.51 445.80, 620.80 444.38 C 621.09 442.96, 621.26 441.96, 622.42 438.95 C 623.58 435.95, 624.34 433.82, 626.60 429.33 C 628.86 424.85, 630.45 422.12, 633.71 416.53 C 636.98 410.94, 639.00 407.64, 642.93 401.38 C 646.86 395.13, 649.21 391.68, 653.36 385.26 C 657.51 378.84, 659.80 375.46, 663.68 369.30 C 667.56 363.13, 669.44 359.80, 672.74 354.42 C 676.04 349.04, 677.76 346.45, 680.18 342.38 C 682.60 338.30, 683.86 336.75, 684.84 334.04 C 685.82 331.34, 685.61 330.14, 685.09 328.83 C 684.57 327.53, 683.56 327.09, 682.24 327.53" style="stroke: black; fill: black;"/><path d="M 763.64,324.18 C 762.56 323.65, 761.65 323.41, 759.62 324.17 C 757.60 324.93, 756.72 325.89, 753.50 327.99 C 750.29 330.09, 748.44 331.58, 743.56 334.67 C 738.67 337.76, 735.48 339.65, 729.09 343.43 C 722.70 347.21, 718.86 349.41, 711.61 353.58 C 704.35 357.74, 700.14 359.99, 692.81 364.27 C 685.49 368.56, 681.43 370.86, 675.00 375.00 C 668.56 379.14, 665.54 381.33, 660.63 384.96 C 655.72 388.58, 653.60 390.04, 650.44 393.11 C 647.28 396.19, 645.84 397.42, 644.85 400.33 C 643.87 403.24, 644.22 405.11, 645.53 407.65 C 646.84 410.20, 648.12 411.54, 651.41 413.08 C 654.71 414.61, 657.13 414.65, 662.00 415.33 C 666.87 416.01, 669.75 416.18, 675.75 416.47 C 681.75 416.76, 685.29 416.75, 692.01 416.79 C 698.73 416.82, 702.69 416.72, 709.35 416.65 C 716.02 416.57, 719.39 416.51, 725.33 416.41 C 731.27 416.32, 734.42 416.21, 739.07 416.17 C 743.72 416.13, 745.60 416.54, 748.58 416.21 C 751.55 415.88, 752.89 415.32, 753.94 414.51 C 755.00 413.71, 754.94 412.88, 753.83 412.18 C 752.72 411.48, 751.39 411.16, 748.41 411.02 C 745.42 410.89, 743.55 411.22, 738.91 411.50 C 734.27 411.78, 731.13 412.16, 725.21 412.43 C 719.29 412.71, 715.93 412.80, 709.31 412.87 C 702.68 412.95, 698.72 413.02, 692.08 412.83 C 685.43 412.64, 681.91 412.53, 676.10 411.92 C 670.29 411.31, 667.43 410.77, 663.01 409.77 C 658.59 408.76, 656.65 407.84, 654.00 406.89 C 651.36 405.94, 650.65 405.95, 649.79 405.01 C 648.93 404.06, 648.93 403.91, 649.71 402.16 C 650.48 400.41, 651.05 399.13, 653.68 396.26 C 656.30 393.38, 658.22 391.53, 662.83 387.80 C 667.43 384.07, 670.40 381.80, 676.70 377.61 C 683.00 373.42, 687.03 371.11, 694.32 366.85 C 701.61 362.60, 705.84 360.37, 713.16 356.33 C 720.48 352.29, 724.36 350.15, 730.91 346.66 C 737.46 343.17, 740.73 341.46, 745.92 338.89 C 751.12 336.32, 753.48 335.59, 756.91 333.80 C 760.33 332.02, 761.42 331.36, 763.05 329.97 C 764.67 328.58, 764.91 327.99, 765.02 326.83 C 765.14 325.67, 764.72 324.71, 763.64 324.18" style="stroke: black; fill: black;"/><path d="M 824.14,387.48 C 824.21 386.29, 824.01 385.54, 822.73 384.32 C 821.45 383.10, 820.31 381.92, 817.72 381.39 C 815.14 380.86, 813.27 380.88, 809.81 381.67 C 806.36 382.46, 804.47 383.45, 800.46 385.34 C 796.45 387.22, 794.04 388.47, 789.79 391.10 C 785.53 393.72, 783.16 395.35, 779.20 398.46 C 775.23 401.57, 773.04 403.30, 769.95 406.67 C 766.85 410.03, 765.35 411.87, 763.72 415.29 C 762.10 418.71, 761.56 420.58, 761.84 423.76 C 762.12 426.93, 762.89 428.83, 765.13 431.16 C 767.37 433.49, 769.29 434.45, 773.04 435.42 C 776.79 436.38, 779.23 436.32, 783.88 435.98 C 788.53 435.65, 791.19 435.10, 796.28 433.75 C 801.38 432.40, 804.29 431.33, 809.34 429.22 C 814.40 427.12, 817.18 425.86, 821.55 423.21 C 825.92 420.55, 827.86 419.02, 831.20 415.94 C 834.54 412.86, 836.04 411.16, 838.25 407.81 C 840.45 404.46, 841.45 402.62, 842.24 399.19 C 843.03 395.76, 842.93 393.64, 842.19 390.65 C 841.46 387.67, 840.18 386.01, 838.55 384.29 C 836.93 382.57, 835.40 382.09, 834.07 382.05 C 832.74 382.00, 832.10 382.91, 831.90 384.07 C 831.70 385.24, 832.46 386.22, 833.08 387.89 C 833.69 389.57, 834.46 390.45, 834.98 392.46 C 835.49 394.47, 835.98 395.48, 835.65 397.95 C 835.32 400.41, 834.93 401.94, 833.34 404.80 C 831.74 407.66, 830.53 409.39, 827.67 412.26 C 824.81 415.12, 823.07 416.62, 819.04 419.12 C 815.01 421.63, 812.32 422.86, 807.53 424.78 C 802.73 426.70, 799.84 427.68, 795.06 428.73 C 790.29 429.78, 787.71 430.02, 783.64 430.04 C 779.57 430.05, 777.54 429.50, 774.72 428.79 C 771.90 428.09, 770.91 427.59, 769.54 426.50 C 768.16 425.41, 767.91 425.06, 767.85 423.34 C 767.80 421.63, 768.03 420.52, 769.26 417.91 C 770.49 415.30, 771.38 413.35, 774.02 410.29 C 776.65 407.23, 778.70 405.47, 782.42 402.60 C 786.14 399.72, 788.51 398.16, 792.60 395.92 C 796.69 393.68, 799.14 392.58, 802.87 391.39 C 806.60 390.19, 808.56 390.23, 811.25 389.95 C 813.94 389.68, 814.68 389.86, 816.33 390.01 C 817.97 390.17, 818.25 390.68, 819.46 390.73 C 820.67 390.78, 821.45 390.93, 822.38 390.28 C 823.32 389.64, 824.07 388.68, 824.14 387.48" style="stroke: black; fill: black;"/><path d="M 917.87,326.76 C 916.38 327.27, 915.37 328.46, 913.03 331.26 C 910.69 334.06, 909.41 336.20, 906.18 340.74 C 902.95 345.28, 900.84 348.44, 896.89 353.97 C 892.95 359.50, 890.59 362.55, 886.46 368.38 C 882.33 374.21, 880.04 377.41, 876.24 383.13 C 872.45 388.85, 870.45 391.84, 867.48 396.97 C 864.51 402.11, 863.25 404.51, 861.40 408.79 C 859.55 413.06, 858.75 414.91, 858.25 418.36 C 857.75 421.81, 857.94 423.62, 858.90 426.05 C 859.86 428.48, 861.29 429.62, 863.05 430.53 C 864.81 431.43, 866.64 431.19, 867.70 430.58 C 868.75 429.96, 868.71 428.35, 868.32 427.45 C 867.93 426.55, 866.55 426.71, 865.74 426.06 C 864.93 425.42, 864.61 425.63, 864.28 424.23 C 863.95 422.84, 863.79 421.85, 864.07 419.09 C 864.35 416.33, 864.32 414.48, 865.68 410.44 C 867.05 406.39, 868.17 403.94, 870.88 398.87 C 873.59 393.80, 875.52 390.76, 879.22 385.09 C 882.93 379.42, 885.21 376.23, 889.41 370.50 C 893.60 364.77, 896.07 361.79, 900.21 356.43 C 904.35 351.07, 906.66 348.05, 910.12 343.70 C 913.58 339.35, 915.45 337.68, 917.53 334.69 C 919.60 331.69, 920.42 330.30, 920.49 328.72 C 920.56 327.13, 919.36 326.25, 917.87 326.76" style="stroke: black; fill: black;"/><path d="M 964.32,321.78 C 963.01 322.08, 962.16 322.61, 960.52 324.77 C 958.87 326.93, 958.44 328.65, 956.08 332.59 C 953.73 336.53, 952.14 339.23, 948.75 344.48 C 945.35 349.73, 943.16 352.94, 939.11 358.84 C 935.07 364.74, 932.54 368.09, 928.50 374.00 C 924.46 379.91, 922.25 383.04, 918.91 388.38 C 915.58 393.72, 914.02 396.30, 911.81 400.68 C 909.59 405.06, 908.62 406.87, 907.84 410.28 C 907.07 413.69, 907.06 415.19, 907.93 417.72 C 908.79 420.25, 909.84 421.50, 912.17 422.91 C 914.51 424.32, 916.23 424.97, 919.61 424.78 C 922.98 424.59, 924.90 423.49, 929.04 421.96 C 933.18 420.43, 935.46 419.43, 940.31 417.13 C 945.15 414.83, 948.34 413.12, 953.26 410.46 C 958.19 407.81, 961.12 406.26, 964.93 403.85 C 968.75 401.45, 971.17 400.05, 972.34 398.44 C 973.51 396.84, 972.73 395.56, 970.77 395.82 C 968.82 396.08, 966.55 397.69, 962.58 399.73 C 958.61 401.78, 955.82 403.52, 950.93 406.04 C 946.05 408.55, 942.91 410.32, 938.15 412.30 C 933.40 414.28, 931.01 414.97, 927.16 415.93 C 923.31 416.89, 921.44 416.75, 918.90 417.10 C 916.36 417.46, 915.68 417.87, 914.45 417.71 C 913.22 417.56, 912.97 417.56, 912.74 416.32 C 912.52 415.08, 912.70 414.27, 913.31 411.51 C 913.92 408.75, 914.05 406.76, 915.81 402.53 C 917.57 398.29, 919.00 395.64, 922.13 390.34 C 925.26 385.03, 927.43 381.88, 931.45 376.02 C 935.47 370.16, 938.01 366.82, 942.22 361.03 C 946.43 355.24, 948.75 352.12, 952.48 347.08 C 956.22 342.04, 958.11 339.56, 960.91 335.83 C 963.71 332.11, 965.25 330.96, 966.48 328.44 C 967.71 325.93, 967.51 324.59, 967.07 323.25 C 966.64 321.92, 965.63 321.47, 964.32 321.78" style="stroke: black; fill: black;"/><path d="M 1007.88,371.43 C 1006.66 371.52, 1006.05 371.84, 1004.51 373.31 C 1002.98 374.78, 1002.02 375.93, 1000.21 378.76 C 998.41 381.60, 997.38 383.85, 995.50 387.47 C 993.61 391.10, 992.43 393.25, 990.79 396.88 C 989.15 400.52, 987.99 402.30, 987.30 405.64 C 986.62 408.99, 986.55 410.86, 987.38 413.60 C 988.20 416.34, 989.19 417.58, 991.41 419.35 C 993.64 421.13, 995.17 422.20, 998.50 422.48 C 1001.82 422.76, 1003.95 422.02, 1008.04 420.76 C 1012.13 419.50, 1014.34 418.41, 1018.96 416.19 C 1023.58 413.96, 1026.21 412.57, 1031.14 409.62 C 1036.07 406.68, 1038.93 404.81, 1043.62 401.46 C 1048.30 398.10, 1050.59 396.13, 1054.57 392.87 C 1058.56 389.61, 1060.43 387.89, 1063.55 385.17 C 1066.67 382.45, 1068.61 381.48, 1070.17 379.28 C 1071.73 377.07, 1071.83 375.46, 1071.34 374.13 C 1070.86 372.80, 1069.55 372.05, 1067.75 372.62 C 1065.95 373.18, 1064.44 374.34, 1062.35 376.95 C 1060.26 379.55, 1059.40 381.93, 1057.30 385.65 C 1055.20 389.37, 1053.88 391.74, 1051.86 395.54 C 1049.85 399.35, 1048.51 401.25, 1047.23 404.67 C 1045.95 408.10, 1045.46 409.76, 1045.47 412.66 C 1045.49 415.56, 1046.00 416.97, 1047.31 419.18 C 1048.63 421.39, 1049.96 422.52, 1052.05 423.70 C 1054.14 424.89, 1055.75 425.20, 1057.76 425.09 C 1059.78 424.99, 1061.21 424.28, 1062.11 423.16 C 1063.02 422.05, 1062.95 420.70, 1062.28 419.51 C 1061.61 418.33, 1060.21 417.77, 1058.74 417.23 C 1057.28 416.69, 1056.26 417.05, 1054.96 416.81 C 1053.66 416.56, 1052.83 416.76, 1052.22 416.00 C 1051.62 415.23, 1051.66 414.78, 1051.92 413.00 C 1052.19 411.22, 1052.41 409.95, 1053.54 407.09 C 1054.67 404.23, 1055.52 402.18, 1057.55 398.70 C 1059.58 395.22, 1061.28 393.07, 1063.68 389.71 C 1066.09 386.35, 1067.96 384.71, 1069.58 381.90 C 1071.20 379.08, 1071.81 377.46, 1071.80 375.63 C 1071.79 373.80, 1070.86 372.93, 1069.52 372.75 C 1068.17 372.56, 1067.01 372.98, 1065.06 374.69 C 1063.11 376.39, 1062.46 378.35, 1059.76 381.27 C 1057.07 384.20, 1055.31 386.02, 1051.57 389.33 C 1047.82 392.64, 1045.58 394.58, 1041.03 397.83 C 1036.48 401.08, 1033.65 402.89, 1028.81 405.58 C 1023.97 408.27, 1021.28 409.52, 1016.81 411.29 C 1012.34 413.05, 1010.02 413.73, 1006.44 414.41 C 1002.86 415.09, 1001.23 414.70, 998.90 414.68 C 996.57 414.67, 995.91 414.82, 994.79 414.34 C 993.67 413.86, 993.39 413.69, 993.30 412.29 C 993.21 410.90, 993.59 409.87, 994.34 407.36 C 995.08 404.85, 995.51 402.99, 997.03 399.74 C 998.54 396.50, 999.82 394.44, 1001.91 391.15 C 1003.99 387.87, 1005.67 386.14, 1007.44 383.33 C 1009.21 380.52, 1010.10 379.19, 1010.74 377.10 C 1011.37 375.01, 1011.18 374.01, 1010.61 372.87 C 1010.03 371.74, 1009.10 371.34, 1007.88 371.43" style="stroke: black; fill: black;"/><path d="M 1114.25,386.44 C 1113.02 386.61, 1112.42 387.26, 1111.20 388.56 C 1109.98 389.86, 1109.33 390.79, 1108.14 392.94 C 1106.95 395.08, 1106.44 396.69, 1105.26 399.27 C 1104.08 401.86, 1103.34 403.46, 1102.23 405.85 C 1101.12 408.24, 1100.29 409.40, 1099.70 411.22 C 1099.12 413.03, 1099.00 413.99, 1099.30 414.94 C 1099.61 415.90, 1100.30 416.28, 1101.25 416.01 C 1102.20 415.73, 1103.08 415.28, 1104.06 413.57 C 1105.05 411.86, 1105.23 410.31, 1106.18 407.44 C 1107.13 404.57, 1107.30 402.54, 1108.82 399.23 C 1110.34 395.91, 1111.35 394.04, 1113.77 390.88 C 1116.19 387.72, 1117.85 386.13, 1120.92 383.43 C 1123.99 380.73, 1125.80 379.44, 1129.12 377.38 C 1132.44 375.31, 1134.26 374.39, 1137.52 373.10 C 1140.78 371.81, 1142.47 371.48, 1145.44 370.93 C 1148.41 370.38, 1149.78 370.37, 1152.36 370.34 C 1154.94 370.31, 1156.12 370.53, 1158.34 370.78 C 1160.56 371.03, 1161.74 371.45, 1163.45 371.59 C 1165.16 371.72, 1165.73 371.56, 1166.88 371.46 C 1168.03 371.36, 1168.50 371.58, 1169.19 371.09 C 1169.89 370.60, 1170.44 369.93, 1170.36 369.01 C 1170.28 368.08, 1169.84 367.40, 1168.79 366.46 C 1167.74 365.52, 1167.02 365.00, 1165.10 364.31 C 1163.19 363.62, 1161.84 363.31, 1159.21 363.02 C 1156.58 362.72, 1155.00 362.55, 1151.94 362.83 C 1148.88 363.12, 1147.27 363.52, 1143.92 364.46 C 1140.56 365.39, 1138.72 365.91, 1135.15 367.52 C 1131.57 369.13, 1129.64 370.21, 1126.05 372.53 C 1122.45 374.85, 1120.57 376.21, 1117.18 379.12 C 1113.79 382.03, 1112.00 383.73, 1109.10 387.06 C 1106.21 390.39, 1105.00 392.38, 1102.72 395.77 C 1100.44 399.16, 1099.19 400.88, 1097.71 404.02 C 1096.24 407.16, 1095.38 408.92, 1095.35 411.49 C 1095.31 414.06, 1096.21 415.51, 1097.53 416.86 C 1098.86 418.21, 1100.19 418.46, 1101.96 418.24 C 1103.73 418.01, 1104.68 417.31, 1106.39 415.74 C 1108.10 414.17, 1108.95 412.85, 1110.50 410.40 C 1112.05 407.95, 1112.82 406.19, 1114.14 403.48 C 1115.47 400.77, 1116.33 399.27, 1117.13 396.84 C 1117.93 394.42, 1118.08 393.19, 1118.13 391.35 C 1118.17 389.52, 1118.14 388.64, 1117.36 387.66 C 1116.59 386.67, 1115.48 386.26, 1114.25 386.44" style="stroke: black; fill: black;"/><path d="M 1190.84,371.25 C 1189.82 371.29, 1188.82 372.78, 1189.18 373.74 C 1189.54 374.69, 1191.60 376.06, 1192.62 376.03 C 1193.63 375.99, 1194.63 374.49, 1194.27 373.54 C 1193.92 372.58, 1191.86 371.21, 1190.84 371.25" style="stroke: black; fill: black;"/><path d="M 1193.19,354.64 C 1192.18 354.41, 1191.72 354.53, 1190.44 355.29 C 1189.16 356.05, 1188.11 356.42, 1186.80 358.46 C 1185.49 360.49, 1185.12 362.26, 1183.88 365.46 C 1182.63 368.66, 1181.99 370.78, 1180.59 374.44 C 1179.19 378.10, 1178.35 380.20, 1176.88 383.75 C 1175.41 387.30, 1174.63 389.08, 1173.25 392.19 C 1171.88 395.31, 1170.90 396.62, 1170.00 399.32 C 1169.11 402.03, 1168.83 403.55, 1168.77 405.72 C 1168.71 407.90, 1169.17 408.91, 1169.72 410.19 C 1170.27 411.48, 1170.76 411.82, 1171.52 412.13 C 1172.28 412.45, 1172.89 412.20, 1173.51 411.77 C 1174.13 411.34, 1174.18 410.97, 1174.63 409.97 C 1175.08 408.97, 1175.22 408.43, 1175.74 406.78 C 1176.27 405.12, 1176.47 404.09, 1177.24 401.70 C 1178.02 399.30, 1178.47 397.87, 1179.62 394.80 C 1180.78 391.73, 1181.49 389.83, 1183.00 386.34 C 1184.51 382.86, 1185.40 380.80, 1187.16 377.38 C 1188.93 373.95, 1190.18 372.11, 1191.82 369.21 C 1193.46 366.31, 1194.52 364.98, 1195.34 362.90 C 1196.17 360.81, 1195.91 360.10, 1195.94 358.81 C 1195.98 357.52, 1196.07 357.28, 1195.52 356.44 C 1194.97 355.61, 1194.21 354.87, 1193.19 354.64" style="stroke: black; fill: black;"/><path d="M 1208.91,330.94 C 1209.67 331.53, 1210.17 332.09, 1210.39 332.96 C 1210.62 333.83, 1210.50 334.89, 1210.06 335.29 C 1209.61 335.68, 1208.70 335.55, 1208.19 334.93 C 1207.67 334.31, 1207.41 333.01, 1207.48 332.19 C 1207.54 331.37, 1207.75 331.17, 1208.52 330.82 C 1209.29 330.46, 1210.58 330.95, 1211.32 330.42 C 1212.06 329.88, 1212.44 329.28, 1212.24 328.15 C 1212.04 327.01, 1211.43 325.49, 1210.33 324.75 C 1209.24 324.01, 1207.77 323.87, 1206.75 324.44 C 1205.74 325.01, 1205.29 326.47, 1205.26 327.59 C 1205.22 328.71, 1205.84 329.38, 1206.57 330.05 C 1207.30 330.73, 1208.14 330.36, 1208.91 330.94" style="stroke: black; fill: black;"/></svg>